<?xml version="1.0" standalone="no"?>
<!DOCTYPE svg PUBLIC "-//W3C//DTD SVG 20010904//EN"
 "http://www.w3.org/TR/2001/REC-SVG-20010904/DTD/svg10.dtd">
<svg version="1.0" xmlns="http://www.w3.org/2000/svg"
 width="220.000000pt" height="220.000000pt" viewBox="0 0 220.000000 220.000000"
 preserveAspectRatio="xMidYMid meet">
<metadata>
Created by potrace 1.11, written by Peter Selinger 2001-2013
</metadata>
<g transform="translate(0.000000,220.000000) scale(0.100000,-0.100000)"
fill="#000000" stroke="none">
<path d="M781 1724 c-281 -47 -488 -235 -521 -472 -10 -74 -2 -169 21 -229 14
-40 68 -143 91 -175 19 -27 19 -27 -2 -48 -24 -24 -25 -38 -4 -70 75 -112 185
-168 445 -226 91 -20 152 -27 304 -31 210 -6 309 3 460 42 177 46 304 115 345
186 35 63 23 95 -68 189 l-78 79 0 113 c0 99 -3 121 -26 180 -56 141 -148 249
-285 335 -205 128 -428 169 -682 127z"/>
</g>
</svg>
